<?xml version="1.0" encoding="UTF-8" standalone="no"?>
<!DOCTYPE svg PUBLIC "-//W3C//DTD SVG 1.1//EN"
 "http://www.w3.org/Graphics/SVG/1.1/DTD/svg11.dtd">
<!-- Generated by graphviz version 2.47.3 (20210619.1520)
 -->
<!-- Title: dependencies Pages: 1 -->
<svg width="338pt" height="174pt"
 viewBox="0.00 0.00 338.00 173.80" xmlns="http://www.w3.org/2000/svg" xmlns:xlink="http://www.w3.org/1999/xlink">
<g id="graph0" class="graph" transform="scale(1 1) rotate(0) translate(4 169.8)">
<title>dependencies</title>
<polygon fill="white" stroke="transparent" points="-4,4 -4,-169.8 334,-169.8 334,4 -4,4"/>
<text text-anchor="middle" x="165" y="-8.2" font-family="sans-serif" font-size="14.00">dependencies</text>
<g id="clust1" class="cluster">
<title>cluster_PaymentModule</title>
<polygon fill="none" stroke="black" stroke-dasharray="1,5" points="8,-32.8 8,-157.8 322,-157.8 322,-32.8 8,-32.8"/>
</g>
<g id="clust6" class="cluster">
<title>cluster_PaymentModule_providers</title>
<polygon fill="none" stroke="black" points="16,-40.8 16,-92.8 314,-92.8 314,-40.8 16,-40.8"/>
</g>
<!-- PaymentService -->
<g id="node1" class="node">
<title>PaymentService</title>
<ellipse fill="#fdb462" stroke="black" cx="232" cy="-66.8" rx="73.57" ry="18"/>
<text text-anchor="middle" x="232" y="-62.6" font-family="Times,serif" font-size="14.00">PaymentService</text>
</g>
<!-- PaymentModule -->
<g id="node3" class="node">
<title>PaymentModule</title>
<polygon fill="#8dd3c7" stroke="black" points="211.04,-149.8 208.04,-153.8 187.04,-153.8 184.04,-149.8 102.96,-149.8 102.96,-113.8 211.04,-113.8 211.04,-149.8"/>
<text text-anchor="middle" x="157" y="-127.6" font-family="Times,serif" font-size="14.00">PaymentModule</text>
</g>
<!-- PaymentService&#45;&gt;PaymentModule -->
<g id="edge1" class="edge">
<title>PaymentService&#45;&gt;PaymentModule</title>
<path fill="none" stroke="black" d="M184.74,-80.9C184.74,-80.9 184.74,-103.52 184.74,-103.52"/>
<polygon fill="black" stroke="black" points="181.24,-103.52 184.74,-113.52 188.24,-103.52 181.24,-103.52"/>
</g>
<!-- UserService -->
<g id="node2" class="node">
<title>UserService</title>
<ellipse fill="#fdb462" stroke="black" cx="82" cy="-66.8" rx="58.44" ry="18"/>
<text text-anchor="middle" x="82" y="-62.6" font-family="Times,serif" font-size="14.00">UserService</text>
</g>
<!-- UserService&#45;&gt;PaymentModule -->
<g id="edge2" class="edge">
<title>UserService&#45;&gt;PaymentModule</title>
<path fill="none" stroke="black" d="M121.47,-80.27C121.47,-80.27 121.47,-103.66 121.47,-103.66"/>
<polygon fill="black" stroke="black" points="117.97,-103.66 121.47,-113.66 124.97,-103.66 117.97,-103.66"/>
</g>
</g>
</svg>
