<?xml version="1.0" encoding="UTF-8" standalone="no"?>
<!DOCTYPE svg PUBLIC "-//W3C//DTD SVG 1.1//EN"
 "http://www.w3.org/Graphics/SVG/1.1/DTD/svg11.dtd">
<!-- Generated by graphviz version 2.47.3 (20210619.1520)
 -->
<!-- Title: dependencies Pages: 1 -->
<svg width="485pt" height="174pt"
 viewBox="0.00 0.00 485.00 173.80" xmlns="http://www.w3.org/2000/svg" xmlns:xlink="http://www.w3.org/1999/xlink">
<g id="graph0" class="graph" transform="scale(1 1) rotate(0) translate(4 169.8)">
<title>dependencies</title>
<polygon fill="white" stroke="transparent" points="-4,4 -4,-169.8 481,-169.8 481,4 -4,4"/>
<text text-anchor="middle" x="238.5" y="-8.2" font-family="sans-serif" font-size="14.00">dependencies</text>
<g id="clust1" class="cluster">
<title>cluster_CartModule</title>
<polygon fill="none" stroke="black" stroke-dasharray="1,5" points="8,-32.8 8,-157.8 469,-157.8 469,-32.8 8,-32.8"/>
</g>
<g id="clust6" class="cluster">
<title>cluster_CartModule_providers</title>
<polygon fill="none" stroke="black" points="16,-40.8 16,-92.8 461,-92.8 461,-40.8 16,-40.8"/>
</g>
<!-- CartService -->
<g id="node1" class="node">
<title>CartService</title>
<ellipse fill="#fdb462" stroke="black" cx="396" cy="-66.8" rx="56.73" ry="18"/>
<text text-anchor="middle" x="396" y="-62.6" font-family="Times,serif" font-size="14.00">CartService</text>
</g>
<!-- CartModule -->
<g id="node4" class="node">
<title>CartModule</title>
<polygon fill="#8dd3c7" stroke="black" points="281.65,-149.8 278.65,-153.8 257.65,-153.8 254.65,-149.8 198.35,-149.8 198.35,-113.8 281.65,-113.8 281.65,-149.8"/>
<text text-anchor="middle" x="240" y="-127.6" font-family="Times,serif" font-size="14.00">CartModule</text>
</g>
<!-- CartService&#45;&gt;CartModule -->
<g id="edge1" class="edge">
<title>CartService&#45;&gt;CartModule</title>
<path fill="none" stroke="black" d="M396,-84.91C396,-104.14 396,-131.8 396,-131.8 396,-131.8 291.81,-131.8 291.81,-131.8"/>
<polygon fill="black" stroke="black" points="291.81,-128.3 281.81,-131.8 291.81,-135.3 291.81,-128.3"/>
</g>
<!-- RestaurentService -->
<g id="node2" class="node">
<title>RestaurentService</title>
<ellipse fill="#fdb462" stroke="black" cx="240" cy="-66.8" rx="81.07" ry="18"/>
<text text-anchor="middle" x="240" y="-62.6" font-family="Times,serif" font-size="14.00">RestaurentService</text>
</g>
<!-- RestaurentService&#45;&gt;CartModule -->
<g id="edge2" class="edge">
<title>RestaurentService&#45;&gt;CartModule</title>
<path fill="none" stroke="black" d="M240,-84.91C240,-84.91 240,-103.79 240,-103.79"/>
<polygon fill="black" stroke="black" points="236.5,-103.79 240,-113.79 243.5,-103.79 236.5,-103.79"/>
</g>
<!-- UserService -->
<g id="node3" class="node">
<title>UserService</title>
<ellipse fill="#fdb462" stroke="black" cx="82" cy="-66.8" rx="58.44" ry="18"/>
<text text-anchor="middle" x="82" y="-62.6" font-family="Times,serif" font-size="14.00">UserService</text>
</g>
<!-- UserService&#45;&gt;CartModule -->
<g id="edge3" class="edge">
<title>UserService&#45;&gt;CartModule</title>
<path fill="none" stroke="black" d="M82,-84.91C82,-104.14 82,-131.8 82,-131.8 82,-131.8 188.07,-131.8 188.07,-131.8"/>
<polygon fill="black" stroke="black" points="188.07,-135.3 198.07,-131.8 188.07,-128.3 188.07,-135.3"/>
</g>
</g>
</svg>
