<?xml version="1.0" encoding="UTF-8" standalone="no"?>
<!DOCTYPE svg PUBLIC "-//W3C//DTD SVG 1.1//EN"
 "http://www.w3.org/Graphics/SVG/1.1/DTD/svg11.dtd">
<!-- Generated by graphviz version 2.47.3 (20210619.1520)
 -->
<!-- Title: dependencies Pages: 1 -->
<svg width="753pt" height="250pt"
 viewBox="0.00 0.00 753.00 249.80" xmlns="http://www.w3.org/2000/svg" xmlns:xlink="http://www.w3.org/1999/xlink">
<g id="graph0" class="graph" transform="scale(1 1) rotate(0) translate(4 245.8)">
<title>dependencies</title>
<polygon fill="white" stroke="transparent" points="-4,4 -4,-245.8 749,-245.8 749,4 -4,4"/>
<text text-anchor="middle" x="372.5" y="-8.2" font-family="sans-serif" font-size="14.00">dependencies</text>
<g id="clust1" class="cluster">
<title>cluster_AppModule</title>
<polygon fill="none" stroke="black" stroke-dasharray="1,5" points="8,-108.8 8,-233.8 630,-233.8 630,-108.8 8,-108.8"/>
</g>
<g id="clust3" class="cluster">
<title>cluster_AppModule_imports</title>
<polygon fill="none" stroke="black" points="154,-116.8 154,-168.8 622,-168.8 622,-116.8 154,-116.8"/>
</g>
<g id="clust6" class="cluster">
<title>cluster_AppModule_providers</title>
<polygon fill="none" stroke="black" points="16,-116.8 16,-168.8 146,-168.8 146,-116.8 16,-116.8"/>
</g>
<g id="clust7" class="cluster">
<title>cluster_CartModule</title>
<polygon fill="none" stroke="black" stroke-dasharray="1,5" points="89,-32.8 89,-100.8 549,-100.8 549,-32.8 89,-32.8"/>
</g>
<g id="clust12" class="cluster">
<title>cluster_CartModule_providers</title>
<polygon fill="none" stroke="black" points="97,-40.8 97,-92.8 541,-92.8 541,-40.8 97,-40.8"/>
</g>
<g id="clust13" class="cluster">
<title>cluster_PaymentModule</title>
<polygon fill="none" stroke="black" stroke-dasharray="1,5" points="557,-32.8 557,-100.8 737,-100.8 737,-32.8 557,-32.8"/>
</g>
<g id="clust18" class="cluster">
<title>cluster_PaymentModule_providers</title>
<polygon fill="none" stroke="black" points="565,-40.8 565,-92.8 729,-92.8 729,-40.8 565,-40.8"/>
</g>
<!-- CartModule -->
<g id="node1" class="node">
<title>CartModule</title>
<polygon fill="#8dd3c7" stroke="black" points="383.65,-160.8 380.65,-164.8 359.65,-164.8 356.65,-160.8 300.35,-160.8 300.35,-124.8 383.65,-124.8 383.65,-160.8"/>
<text text-anchor="middle" x="342" y="-138.6" font-family="Times,serif" font-size="14.00">CartModule</text>
</g>
<!-- AppModule -->
<g id="node5" class="node">
<title>AppModule</title>
<polygon fill="#8dd3c7" stroke="black" points="383.66,-225.8 380.66,-229.8 359.66,-229.8 356.66,-225.8 300.34,-225.8 300.34,-189.8 383.66,-189.8 383.66,-225.8"/>
<text text-anchor="middle" x="342" y="-203.6" font-family="Times,serif" font-size="14.00">AppModule</text>
</g>
<!-- CartModule&#45;&gt;AppModule -->
<g id="edge1" class="edge">
<title>CartModule&#45;&gt;AppModule</title>
<path fill="none" stroke="black" d="M342,-160.91C342,-160.91 342,-179.79 342,-179.79"/>
<polygon fill="black" stroke="black" points="338.5,-179.79 342,-189.79 345.5,-179.79 338.5,-179.79"/>
</g>
<!-- PaymentModule -->
<g id="node2" class="node">
<title>PaymentModule</title>
<polygon fill="#8dd3c7" stroke="black" points="614.04,-160.8 611.04,-164.8 590.04,-164.8 587.04,-160.8 505.96,-160.8 505.96,-124.8 614.04,-124.8 614.04,-160.8"/>
<text text-anchor="middle" x="560" y="-138.6" font-family="Times,serif" font-size="14.00">PaymentModule</text>
</g>
<!-- PaymentModule&#45;&gt;AppModule -->
<g id="edge2" class="edge">
<title>PaymentModule&#45;&gt;AppModule</title>
<path fill="none" stroke="black" d="M560,-161.08C560,-182.12 560,-213.8 560,-213.8 560,-213.8 393.77,-213.8 393.77,-213.8"/>
<polygon fill="black" stroke="black" points="393.77,-210.3 383.77,-213.8 393.77,-217.3 393.77,-210.3"/>
</g>
<!-- RestaurentModule -->
<g id="node3" class="node">
<title>RestaurentModule</title>
<polygon fill="#8dd3c7" stroke="black" points="281.92,-160.8 278.92,-164.8 257.92,-164.8 254.92,-160.8 162.08,-160.8 162.08,-124.8 281.92,-124.8 281.92,-160.8"/>
<text text-anchor="middle" x="222" y="-138.6" font-family="Times,serif" font-size="14.00">RestaurentModule</text>
</g>
<!-- RestaurentModule&#45;&gt;AppModule -->
<g id="edge3" class="edge">
<title>RestaurentModule&#45;&gt;AppModule</title>
<path fill="none" stroke="black" d="M222,-160.82C222,-178.17 222,-201.8 222,-201.8 222,-201.8 290.03,-201.8 290.03,-201.8"/>
<polygon fill="black" stroke="black" points="290.03,-205.3 300.03,-201.8 290.03,-198.3 290.03,-205.3"/>
</g>
<!-- UserModule -->
<g id="node4" class="node">
<title>UserModule</title>
<polygon fill="#8dd3c7" stroke="black" points="487.98,-160.8 484.98,-164.8 463.98,-164.8 460.98,-160.8 402.02,-160.8 402.02,-124.8 487.98,-124.8 487.98,-160.8"/>
<text text-anchor="middle" x="445" y="-138.6" font-family="Times,serif" font-size="14.00">UserModule</text>
</g>
<!-- UserModule&#45;&gt;AppModule -->
<g id="edge4" class="edge">
<title>UserModule&#45;&gt;AppModule</title>
<path fill="none" stroke="black" d="M445,-160.82C445,-178.17 445,-201.8 445,-201.8 445,-201.8 393.89,-201.8 393.89,-201.8"/>
<polygon fill="black" stroke="black" points="393.89,-198.3 383.89,-201.8 393.89,-205.3 393.89,-198.3"/>
</g>
<!-- AppService -->
<g id="node6" class="node">
<title>AppService</title>
<ellipse fill="#fdb462" stroke="black" cx="81" cy="-142.8" rx="56.74" ry="18"/>
<text text-anchor="middle" x="81" y="-138.6" font-family="Times,serif" font-size="14.00">AppService</text>
</g>
<!-- AppService&#45;&gt;AppModule -->
<g id="edge5" class="edge">
<title>AppService&#45;&gt;AppModule</title>
<path fill="none" stroke="black" d="M81,-161.08C81,-182.12 81,-213.8 81,-213.8 81,-213.8 290.07,-213.8 290.07,-213.8"/>
<polygon fill="black" stroke="black" points="290.07,-217.3 300.07,-213.8 290.07,-210.3 290.07,-217.3"/>
</g>
<!-- CartService -->
<g id="node7" class="node">
<title>CartService</title>
<ellipse fill="#fdb462" stroke="black" cx="342" cy="-66.8" rx="56.73" ry="18"/>
<text text-anchor="middle" x="342" y="-62.6" font-family="Times,serif" font-size="14.00">CartService</text>
</g>
<!-- CartService&#45;&gt;CartModule -->
<g id="edge6" class="edge">
<title>CartService&#45;&gt;CartModule</title>
<path fill="none" stroke="black" d="M342,-84.81C342,-84.81 342,-114.65 342,-114.65"/>
<polygon fill="black" stroke="black" points="338.5,-114.65 342,-124.65 345.5,-114.65 338.5,-114.65"/>
</g>
<!-- RestaurentService -->
<g id="node8" class="node">
<title>RestaurentService</title>
<ellipse fill="#fdb462" stroke="black" cx="186" cy="-66.8" rx="81.07" ry="18"/>
<text text-anchor="middle" x="186" y="-62.6" font-family="Times,serif" font-size="14.00">RestaurentService</text>
</g>
<!-- RestaurentService&#45;&gt;CartModule -->
<g id="edge7" class="edge">
<title>RestaurentService&#45;&gt;CartModule</title>
<path fill="none" stroke="black" d="M232.29,-81.68C232.29,-90.03 232.29,-98.8 232.29,-98.8 232.29,-98.8 321.09,-98.8 321.09,-98.8 321.09,-98.8 321.09,-114.65 321.09,-114.65"/>
<polygon fill="black" stroke="black" points="317.59,-114.65 321.09,-124.65 324.59,-114.65 317.59,-114.65"/>
</g>
<!-- RestaurentService&#45;&gt;RestaurentModule -->
<g id="edge11" class="edge">
<title>RestaurentService&#45;&gt;RestaurentModule</title>
<path fill="none" stroke="black" d="M197.29,-84.81C197.29,-84.81 197.29,-114.65 197.29,-114.65"/>
<polygon fill="black" stroke="black" points="193.79,-114.65 197.29,-124.65 200.79,-114.65 193.79,-114.65"/>
</g>
<!-- UserService -->
<g id="node9" class="node">
<title>UserService</title>
<ellipse fill="#fdb462" stroke="black" cx="475" cy="-66.8" rx="58.44" ry="18"/>
<text text-anchor="middle" x="475" y="-62.6" font-family="Times,serif" font-size="14.00">UserService</text>
</g>
<!-- UserService&#45;&gt;CartModule -->
<g id="edge8" class="edge">
<title>UserService&#45;&gt;CartModule</title>
<path fill="none" stroke="black" d="M440.52,-81.53C440.52,-94.66 440.52,-111.8 440.52,-111.8 440.52,-111.8 362.91,-111.8 362.91,-111.8 362.91,-111.8 362.91,-114.77 362.91,-114.77"/>
<polygon fill="black" stroke="black" points="359.41,-114.77 362.91,-124.77 366.41,-114.77 359.41,-114.77"/>
</g>
<!-- UserService&#45;&gt;PaymentModule -->
<g id="edge10" class="edge">
<title>UserService&#45;&gt;PaymentModule</title>
<path fill="none" stroke="black" d="M519.47,-78.68C519.47,-78.68 519.47,-114.79 519.47,-114.79"/>
<polygon fill="black" stroke="black" points="515.97,-114.79 519.47,-124.79 522.97,-114.79 515.97,-114.79"/>
</g>
<!-- UserService&#45;&gt;UserModule -->
<g id="edge12" class="edge">
<title>UserService&#45;&gt;UserModule</title>
<path fill="none" stroke="black" d="M464.25,-84.81C464.25,-84.81 464.25,-114.65 464.25,-114.65"/>
<polygon fill="black" stroke="black" points="460.75,-114.65 464.25,-124.65 467.75,-114.65 460.75,-114.65"/>
</g>
<!-- PaymentService -->
<g id="node10" class="node">
<title>PaymentService</title>
<ellipse fill="#fdb462" stroke="black" cx="647" cy="-66.8" rx="73.57" ry="18"/>
<text text-anchor="middle" x="647" y="-62.6" font-family="Times,serif" font-size="14.00">PaymentService</text>
</g>
<!-- PaymentService&#45;&gt;PaymentModule -->
<g id="edge9" class="edge">
<title>PaymentService&#45;&gt;PaymentModule</title>
<path fill="none" stroke="black" d="M593.74,-79.35C593.74,-79.35 593.74,-114.54 593.74,-114.54"/>
<polygon fill="black" stroke="black" points="590.24,-114.54 593.74,-124.54 597.24,-114.54 590.24,-114.54"/>
</g>
</g>
</svg>
